<svg xmlns="http://www.w3.org/2000/svg" version="1.0" preserveAspectRatio="xMidYMid meet" viewBox="326.5 271 129.77 58.92">

<g transform="translate(0.000000,600.000000) scale(0.100000,-0.100000)" fill="#000000" stroke="none">
<path d="M3422 3264 c-56 -28 -100 -72 -134 -137 -19 -34 -23 -58 -23 -127 0 -73 4 -92 27 -135 94 -178 315 -219 461 -85 77 70 101 129 95 235 -5 89 -19 124 -76 187 -56 62 -120 88 -218 88 -66 0 -89 -4 -132 -26z m176 -57 c21 -17 14 -65 -13 -83 -44 -29 -94 9 -81 62 10 39 57 49 94 21z m0 -129 c8 -8 12 -54 12 -142 0 -106 -3 -133 -17 -148 -21 -24 -48 -23 -73 2 -18 18 -20 33 -20 138 0 90 4 123 16 140 17 24 62 30 82 10z"/>
<path d="M4054 3037 c-3 -8 -4 -41 -2 -73 4 -75 25 -83 53 -22 11 24 35 53 54 66 l34 22 -32 0 c-17 0 -39 -8 -50 -19 -20 -20 -20 -20 -23 6 -3 30 -25 42 -34 20z"/>
<path d="M4233 3034 c-24 -10 -13 -24 17 -24 17 0 30 -4 30 -10 0 -5 -8 -10 -18 -10 -25 0 -66 -45 -59 -65 10 -25 55 -41 77 -27 11 6 27 9 36 5 15 -5 16 0 12 46 -3 29 -11 59 -19 66 -16 16 -58 26 -76 19z m57 -84 c0 -19 -36 -47 -47 -36 -4 3 -1 17 5 31 14 30 42 33 42 5z"/>
<path d="M4495 3016 c-14 -10 -25 -11 -38 -4 -10 5 -26 6 -35 2 -9 -4 -26 -8 -37 -8 -16 -1 -21 -9 -23 -45 -4 -48 12 -76 28 -51 5 8 10 25 10 37 0 12 9 27 20 33 23 12 27 6 32 -45 2 -19 9 -30 18 -30 10 0 14 8 12 22 -4 28 14 63 33 63 9 0 15 -14 17 -42 2 -30 8 -43 18 -43 12 0 14 11 12 50 -6 72 -26 91 -67 61z"/>
<path d="M3909 3000 c-29 -25 -32 -57 -10 -79 12 -12 21 -27 21 -35 0 -8 14 -19 30 -25 45 -15 34 -61 -15 -61 -12 0 -26 5 -33 12 -9 9 -12 9 -12 -3 0 -43 73 -54 108 -16 29 30 28 51 -3 75 -24 19 -24 20 -8 63 9 24 23 52 31 62 17 19 16 19 -47 21 -27 1 -52 -5 -62 -14z m56 -20 c7 -12 -12 -50 -26 -50 -13 0 -22 27 -15 45 6 17 32 20 41 5z"/>
</g>
</svg>